<?xml version="1.0" encoding="UTF-8" standalone="no"?><svg xmlns="http://www.w3.org/2000/svg" version="1.1" width="200" height="200" viewBox="-15 0 200 200"><path style="fill:#000" d="M 0,13 C -0,2 1,-2 10,1 L 164,100 c 5,3 9,7 2,16 L 43,197 c -5,4 -12,2 -13,-5 z"/><path style="fill:#fd0" d="M 42,191 161,112 c 1,-1 4,-3 1,-5 L 11,8 C 8,6 5,6 6,9 L 36,187 c 0,4 1,8 5,4 z"/><path style="fill:#000" d="m 60,60 c 11,-2 -0,-29 -13,-14 -1,2 2,3 4,4 8,1 -0,11 8,9 z"/><path style="fill:#000" d="m 42,114 c -0,-5 16,-10 24,1 4,6 3,15 -8,25 -7,6 -12,5 -14,1 -2,-3 0,-6 7,-10 6,-4 4,-6 1,-9 -5,-6 -10,-3 -10,-8 z"/><path style="fill:#000" d="m 82,85 c 0,5 11,-1 15,2 2,2 -1,6 0,9 0,1 2,4 4,3 2,-0 3,-3 3,-5 0,-4 0,-9 -2,-12 -2,-2 -6,-3 -10,-2 -3,0 -11,1 -10,5 z"/><path style="fill:#000" d="m 65,151 c 1,2 5,0 7,0 5,0 10,-0 15,0 2,0 3,4 5,4 1,0 2,-1 3,-2 1,-3 -0,-6 -2,-9 -2,-3 -7,-4 -12,-4 -4,-0 -9,0 -13,2 -2,1 -5,4 -4,7 z"/><path style="fill:#000" d="m 113,112 c -2,0 -2,5 -1,7 1,1 4,3 6,2 1,-1 1,-4 0,-5 -0,-1 -3,-4 -5,-4 z"/></svg>
